<?xml version="1.0" encoding="UTF-8"?>
<svg version="1.1" xmlns="http://www.w3.org/2000/svg" width="40" height="40">
<path d="M0 0 C13.2 0 26.4 0 40 0 C40 13.2 40 26.4 40 40 C26.8 40 13.6 40 0 40 C0 26.8 0 13.6 0 0 Z " fill="#21D4F7" transform="translate(0,0)"/>
<path d="M0 0 C1.62615234 0.00870117 1.62615234 0.00870117 3.28515625 0.01757812 C12.46544271 0.15942433 12.46544271 0.15942433 15.875 2.4375 C16.625 5.0625 16.625 5.0625 16.875 7.4375 C17.535 7.4375 18.195 7.4375 18.875 7.4375 C18.875 9.0875 18.875 10.7375 18.875 12.4375 C17.225 12.4375 15.575 12.4375 13.875 12.4375 C13.875 11.1175 13.875 9.7975 13.875 8.4375 C10.905 8.1075 7.935 7.7775 4.875 7.4375 C4.545 8.4275 4.215 9.4175 3.875 10.4375 C3.215 9.1175 2.555 7.7975 1.875 6.4375 C-0.07499129 6.63221111 -0.07499129 6.63221111 -2.125 7.4375 C-3.40936734 9.4212767 -3.40936734 9.4212767 -4.125 11.4375 C-4.785 11.4375 -5.445 11.4375 -6.125 11.4375 C-6.125 12.0975 -6.125 12.7575 -6.125 13.4375 C-7.115 13.4375 -8.105 13.4375 -9.125 13.4375 C-9.125 14.0975 -9.125 14.7575 -9.125 15.4375 C-11.435 15.1075 -13.745 14.7775 -16.125 14.4375 C-16.125 15.0975 -16.125 15.7575 -16.125 16.4375 C-16.785 16.4375 -17.445 16.4375 -18.125 16.4375 C-18.28822732 14.71152225 -18.40395945 12.98101663 -18.5 11.25 C-18.56960937 10.28707031 -18.63921875 9.32414063 -18.7109375 8.33203125 C-18.04099452 5.02251292 -16.92905414 3.39394668 -14.20654297 1.37719727 C-9.72657393 -0.64525181 -4.81644728 -0.14708911 0 0 Z " fill="#21D4F7" transform="translate(21.125,1.5625)"/>
<path d="M0 0 C1.32 0 2.64 0 4 0 C4.66 0.99 5.32 1.98 6 3 C6.33 2.34 6.66 1.68 7 1 C8.99954746 0.95745644 11.00041636 0.95919217 13 1 C14 2 14 2 14.09765625 4.72265625 C14.08605469 5.82480469 14.07445313 6.92695313 14.0625 8.0625 C14.05347656 9.16722656 14.04445313 10.27195312 14.03515625 11.41015625 C14.02355469 12.26480469 14.01195313 13.11945312 14 14 C10.7 14.66 7.4 15.32 4 16 C3.67 18.64 3.34 21.28 3 24 C1.68 23.67 0.36 23.34 -1 23 C-1.33 21.02 -1.66 19.04 -2 17 C-2.99 17 -3.98 17 -5 17 C-5.33 18.32 -5.66 19.64 -6 21 C-6.99 21 -7.98 21 -9 21 C-8.67 19.02 -8.34 17.04 -8 15 C-8.99 14.67 -9.98 14.34 -11 14 C-10.67 12.68 -10.34 11.36 -10 10 C-7.36 9.67 -4.72 9.34 -2 9 C-1.855625 7.700625 -1.71125 6.40125 -1.5625 5.0625 C-1.125 1.125 -1.125 1.125 0 0 Z " fill="#A4F2FA" transform="translate(19,8)"/>
<path d="M0 0 C13.2 0 26.4 0 40 0 C40 1.65 40 3.3 40 5 C39.22184937 4.26765137 39.22184937 4.26765137 38.42797852 3.52050781 C35.19135604 1.49359129 32.95476425 1.64267015 29.15234375 1.671875 C28.49923721 1.67374817 27.84613068 1.67562134 27.17323303 1.67755127 C25.79732124 1.68425356 24.42142792 1.69813192 23.0456543 1.71875 C20.94106303 1.74994718 18.83722167 1.75972851 16.73242188 1.765625 C9.76449802 1.64925243 9.76449802 1.64925243 3 3 C1.30474494 8.08576517 1.81407596 13.50126645 1.81469727 18.82397461 C1.81251146 20.92647565 1.79434455 23.02845117 1.77539062 25.13085938 C1.77245624 26.47135238 1.77047175 27.81184787 1.76953125 29.15234375 C1.76542236 30.36913818 1.76131348 31.58593262 1.75708008 32.83959961 C1.98688606 35.82938692 2.42732225 37.49158484 4 40 C2.68 40 1.36 40 0 40 C0 26.8 0 13.6 0 0 Z " fill="#94EDFA" transform="translate(0,0)"/>
<path d="M0 0 C1.9790332 -0.00290039 1.9790332 -0.00290039 3.99804688 -0.00585938 C4.6800415 0.00662842 5.36203613 0.01911621 6.06469727 0.03198242 C8.15061926 0.06637781 10.23231853 0.05261158 12.31835938 0.03320312 C22.40697467 0.10720275 22.40697467 0.10720275 25.52905273 2.49243164 C27.08984375 4.62890625 27.08984375 4.62890625 26.83984375 7.37890625 C26.59234375 8.12140625 26.34484375 8.86390625 26.08984375 9.62890625 C25.42984375 9.29890625 24.76984375 8.96890625 24.08984375 8.62890625 C24.08984375 6.97890625 24.08984375 5.32890625 24.08984375 3.62890625 C18.87138834 2.10247155 13.54729055 2.36431874 8.15234375 2.31640625 C7.06759766 2.28740234 5.98285156 2.25839844 4.86523438 2.22851562 C-1.43498359 2.09436933 -1.43498359 2.09436933 -7.0390625 4.6484375 C-7.65652344 5.30199219 -8.27398438 5.95554687 -8.91015625 6.62890625 C-9.57015625 6.62890625 -10.23015625 6.62890625 -10.91015625 6.62890625 C-10.89074148 10.56249077 -10.83904973 14.49420004 -10.75756836 18.42700195 C-10.72299579 20.42181491 -10.71391031 22.41701639 -10.70507812 24.41210938 C-10.67607422 25.66572266 -10.64707031 26.91933594 -10.6171875 28.2109375 C-10.60147705 29.36827393 -10.5857666 30.52561035 -10.56958008 31.71801758 C-10.20378211 34.84851786 -10.20378211 34.84851786 -7.3659668 36.4050293 C-6.55554932 36.80890869 -5.74513184 37.21278809 -4.91015625 37.62890625 C-4.91015625 38.28890625 -4.91015625 38.94890625 -4.91015625 39.62890625 C-8.91015625 39.62890625 -8.91015625 39.62890625 -10.63085938 38.05249023 C-13.10625061 33.36294658 -12.42826079 27.97848364 -12.41113281 22.78442383 C-12.41016053 20.70057921 -12.45179412 18.62042244 -12.49609375 16.53710938 C-12.49867187 15.21775391 -12.50125 13.89839844 -12.50390625 12.5390625 C-12.51099609 11.33386963 -12.51808594 10.12867676 -12.52539062 8.88696289 C-11.1756469 1.7392129 -6.75823903 -0.00406606 0 0 Z " fill="#3ECDE8" transform="translate(12.91015625,0.37109375)"/>
<path d="M0 0 C0.66 0 1.32 0 2 0 C2.66 0.99 3.32 1.98 4 3 C4.33 2.34 4.66 1.68 5 1 C6.99954746 0.95745644 9.00041636 0.95919217 11 1 C12 2 12 2 12.09765625 4.72265625 C12.08605469 5.82480469 12.07445312 6.92695313 12.0625 8.0625 C12.05347656 9.16722656 12.04445313 10.27195312 12.03515625 11.41015625 C12.02355469 12.26480469 12.01195312 13.11945312 12 14 C11.34 13.01 10.68 12.02 10 11 C8.10379296 10.28846039 8.10379296 10.28846039 6 9.8125 C3.84375 9.09375 3.84375 9.09375 2 8 C0.65481665 5.26624029 0.40306435 3.07336564 0 0 Z " fill="#4BD2E9" transform="translate(21,8)"/>
<path d="M0 0 C0.66 0 1.32 0 2 0 C2 8.58 2 17.16 2 26 C-0.97 26 -3.94 26 -7 26 C-6.505 24.515 -6.505 24.515 -6 23 C-4.68 23 -3.36 23 -2 23 C-2.020625 22.195625 -2.04125 21.39125 -2.0625 20.5625 C-2 18 -2 18 -1 17 C-0.76298761 14.14122091 -0.57780818 11.30116703 -0.4375 8.4375 C-0.37272461 7.22803711 -0.37272461 7.22803711 -0.30664062 5.99414062 C-0.20024738 3.99631195 -0.09959112 1.9981793 0 0 Z " fill="#2FD1F2" transform="translate(38,14)"/>
<path d="M0 0 C1.65 0 3.3 0 5 0 C5 0.99 5 1.98 5 3 C2.03 3.66 -0.94 4.32 -4 5 C-4.33 7.64 -4.66 10.28 -5 13 C-6.32 12.67 -7.64 12.34 -9 12 C-9.268125 10.88625 -9.53625 9.7725 -9.8125 8.625 C-10.65809019 4.78159049 -10.65809019 4.78159049 -14 3 C-12.1875 2.3125 -12.1875 2.3125 -10 2 C-8.25 3.4375 -8.25 3.4375 -7 5 C-6.5875 4.505 -6.175 4.01 -5.75 3.5 C-4 2 -4 2 0 2 C0 1.34 0 0.68 0 0 Z " fill="#AEF5FA" transform="translate(27,19)"/>
<path d="M0 0 C1.47057839 0.00031709 2.94118001 0.01164091 4.41162109 0.03173828 C5.18565277 0.03456818 5.95968445 0.03739807 6.75717163 0.04031372 C9.23329016 0.05152325 11.70904909 0.07662875 14.18505859 0.10205078 C15.86213671 0.1120796 17.53922049 0.12120562 19.21630859 0.12939453 C23.33103082 0.15146504 27.44548371 0.18599977 31.56005859 0.22705078 C31.56005859 1.87705078 31.56005859 3.52705078 31.56005859 5.22705078 C30.78190796 4.4936145 30.78190796 4.4936145 29.98803711 3.74536133 C26.74622986 1.71813164 24.51857661 1.88493921 20.71240234 1.93408203 C19.73274254 1.9404493 19.73274254 1.9404493 18.73329163 1.94694519 C16.65428654 1.96367366 14.57626752 2.00127461 12.49755859 2.03955078 C11.09588009 2.05460867 9.69418614 2.06829514 8.29248047 2.08056641 C5.72502936 2.10503514 3.15838193 2.139119 0.59106445 2.17944336 C-1.41908553 2.2110164 -3.42954349 2.22705078 -5.43994141 2.22705078 C-3.43994141 0.22705078 -3.43994141 0.22705078 0 0 Z " fill="#81EAFA" transform="translate(8.43994140625,-0.22705078125)"/>
<path d="M0 0 C1.98 1.65 3.96 3.3 6 5 C4.35 6.65 2.7 8.3 1 10 C-2.465 8.02 -2.465 8.02 -6 6 C-6 5.34 -6 4.68 -6 4 C-5.38125 3.896875 -4.7625 3.79375 -4.125 3.6875 C-1.63473516 3.12474627 -1.63473516 3.12474627 0 0 Z " fill="#57CFE4" transform="translate(20,15)"/>
<path d="M0 0 C0.99 0.495 0.99 0.495 2 1 C1.67 1.99 1.34 2.98 1 4 C2.98 4.495 2.98 4.495 5 5 C4.34 6.98 3.68 8.96 3 11 C3.99 11.33 4.98 11.66 6 12 C4.35 11.67 2.7 11.34 1 11 C0.67 7.37 0.34 3.74 0 0 Z " fill="#3ED1EB" transform="translate(7,18)"/>
<path d="M0 0 C1.98 0.66 3.96 1.32 6 2 C5.01 2.33 4.02 2.66 3 3 C2.26676204 5.01508358 2.26676204 5.01508358 2 7 C1.01 7 0.02 7 -1 7 C-0.67 4.69 -0.34 2.38 0 0 Z " fill="#7DE4F2" transform="translate(11,22)"/>
<path d="M0 0 C0.33 1.32 0.66 2.64 1 4 C-1.97 4 -4.94 4 -8 4 C-7.67 3.01 -7.34 2.02 -7 1 C-3.535 0.505 -3.535 0.505 0 0 Z " fill="#71E0F2" transform="translate(39,36)"/>
<path d="M0 0 C0.99 0 1.98 0 3 0 C3.268125 0.969375 3.53625 1.93875 3.8125 2.9375 C4.204375 3.948125 4.59625 4.95875 5 6 C5.99 6.33 6.98 6.66 8 7 C8.33 5.68 8.66 4.36 9 3 C9 4.65 9 6.3 9 8 C6.6875 8.25 6.6875 8.25 4 8 C2.3125 6.0625 2.3125 6.0625 1 4 C0.34 3.67 -0.32 3.34 -1 3 C-0.67 2.01 -0.34 1.02 0 0 Z " fill="#47D1E9" transform="translate(14,25)"/>
<path d="M0 0 C0.99 0.33 1.98 0.66 3 1 C3 2.65 3 4.3 3 6 C2.01 6 1.02 6 0 6 C-0.33 6.66 -0.66 7.32 -1 8 C-1.04241723 5.66705225 -1.04092937 3.33297433 -1 1 C-0.67 0.67 -0.34 0.34 0 0 Z " fill="#B4F8FC" transform="translate(19,8)"/>
<path d="M0 0 C1.32 0.33 2.64 0.66 4 1 C4 1.99 4 2.98 4 4 C3.34 4 2.68 4 2 4 C2 4.66 2 5.32 2 6 C0.68 5.34 -0.64 4.68 -2 4 C-1.34 2.68 -0.68 1.36 0 0 Z " fill="#A6F8FD" transform="translate(28,10)"/>
<path d="M0 0 C-5.625 3.875 -5.625 3.875 -9 5 C-9 3.68 -9 2.36 -9 1 C-5.57367167 -0.61798838 -3.61944899 -1.34053666 0 0 Z " fill="#52D2E9" transform="translate(32,23)"/>
<path d="M0 0 C0.66 0 1.32 0 2 0 C2 1.32 2 2.64 2 4 C-0.31 4.33 -2.62 4.66 -5 5 C-4.34 4.67 -3.68 4.34 -3 4 C-3 3.34 -3 2.68 -3 2 C-2.01 2 -1.02 2 0 2 C0 1.34 0 0.68 0 0 Z " fill="#40CDE8" transform="translate(15,13)"/>
</svg>
